<?xml version="1.0" encoding="utf-8"?>
<!-- Generator: Adobe Illustrator 22.0.0, SVG Export Plug-In . SVG Version: 6.00 Build 0)  -->
<svg version="1.1" xmlns="http://www.w3.org/2000/svg" xmlns:xlink="http://www.w3.org/1999/xlink" x="0px" y="0px"
	 viewBox="0 0 540 431.7" style="enable-background:new 0 0 540 431.7;" xml:space="preserve">
<style type="text/css">
	.st0{display:none;fill:#FFFFFF;}
	.st1{fill:#FFFFFF;}
</style>
<g id="Horns">
	<g id="Horn01">
	</g>
</g>
<g id="Layer_1">
	
		<rect x="46.1" y="164.5" transform="matrix(0.9906 -0.137 0.137 0.9906 -25.8012 38.3574)" class="st0" width="439.2" height="84.2"/>
	<g>
		<path class="st1" d="M217.1,168.3c-0.5-0.6-1.2-1.2-1.8-1.7c-1.4-0.9-2.9-1.6-4.4-2.2c-3-1.2-6.1-2.1-9.1-3.5
			c-2.9-1.3-5.7-3-8.1-5.2c-1.6-1.6-3.1-3.3-4.3-5.2c-1.3-1.9-2.4-3.8-3.4-5.8c-1-2-1.9-4.1-2.7-6.2c-0.8-2.1-1.5-4.2-2.1-6.3
			c0-0.5-0.1-0.9-0.4-1.4c-0.1-0.2-0.4-0.5-0.8-0.7c-0.1,0-0.2-0.1-0.3-0.1c-0.1,0-0.2,0-0.3,0c-0.2,0-0.3,0.1-0.5,0.1
			c-0.5,0.2-0.9,0.6-1.2,0.9c-0.3,0.3-0.6,0.6-0.8,1c-1.1,1.3-2,2.6-2.9,4c-0.9,1.4-1.7,2.8-2.5,4.3c-0.7,1.5-1.4,3-2,4.5
			c-1.2,3.1-2.1,6.3-2.6,9.6c-0.2,1.6-0.4,3.3-0.4,5c0,0.8,0,1.7,0,2.5c0,0.4,0.1,0.8,0.1,1.2c0,0.4,0.1,0.8,0.1,1.2
			c0.4,3.3,1.2,6.6,2.5,9.6c1.3,3.1,6.2,1.4,8.2,4c3.9,5.4,5.8,14.3,12.1,16.6c3.1,1.1,1-3,4.3-3c3.3,0,0-4.3,3-5.7
			c3-1.4,0.4-4.8,2.6-7.3c2.2-2.5,6.8-0.6,7.1-3.9c0.3-3.3,13.9-1.7,12.1-4.5C218.1,169.6,217.7,169,217.1,168.3z"/>
		<path class="st1" d="M344.4,137.5c-1-3.4-2.5-6.6-4.4-9.5c-1.9-3-4.2-5.6-6.7-8.1c-1.2-1.2-2.6-2.4-3.9-3.5
			c-1.4-1.1-2.8-2.1-4.3-3l-0.4-0.2c-0.1-0.1-0.3-0.1-0.4-0.1c-0.3-0.1-0.6-0.1-0.9,0.1c-0.3,0.2-0.3,0.5-0.3,0.8
			c0,0.3,0,0.6,0.1,0.8c0,1.7,0,3.5-0.1,5.2c-0.1,1.7-0.3,3.5-0.5,5.2c-0.5,3.4-1.2,6.9-2.4,10.1c-0.1,0.4-0.3,0.8-0.5,1.2
			c-0.2,0.4-0.3,0.8-0.5,1.2c-0.4,0.8-0.8,1.5-1.2,2.2c-0.9,1.4-1.9,2.8-3.1,4c-1.2,1.3-2.4,2.4-3.7,3.5c-1.3,1.1-2.7,2.2-4,3.3
			c-1.4,1.1-2.7,2.3-3.9,3.7c-0.6,0.7-1.1,1.5-1.6,2.4c-0.2,0.4-0.4,0.9-0.5,1.3c-0.1,0.4-0.3,0.9-0.4,1.3c-0.4,1.8-0.5,3.7-0.3,5.5
			c0.2,1.8,0.9,3.6,1.8,5.2c0.9,1.6,2.2,3,3.6,4.2l0.5,0.4c0.2,0.1,0.4,0.3,0.6,0.4l1.2,0.7c0.2,0.1,0.4,0.2,0.6,0.3l0.6,0.3
			c0.4,0.2,0.8,0.4,1.3,0.5l1.3,0.4l0.3,0.1l0.3,0.1l0.7,0.2c0.4,0.1,0.9,0.2,1.3,0.3l1.3,0.2c1.8,0.3,3.6,0.3,5.4,0.1
			c3.6-0.4-4.5-9.8-1.5-11.6c3-1.9,6.9-3.1,9.1-5.9c2.2-2.8,14,0.7,15.2-2.6c0.5-1.7,0.9-3.4,1.3-5.2c0.3-1.7,0.5-3.5,0.5-5.3
			C345.9,144.4,345.4,140.8,344.4,137.5z"/>
		<g>
			<path class="st1" d="M37.7,189.3l54.8-7.3l12.8,96.4l-54.8,7.3L37.7,189.3z M79.6,239.5c0.8-0.1,1.8-0.7,3.2-1.7
				c1.3-1,2.5-2.4,3.7-4.2c1.2-1.8,2.1-4,2.8-6.5c0.7-2.5,0.8-5.3,0.4-8.4c-0.4-2.9-1.1-5.7-2.1-8.3c-1-2.6-2.5-4.8-4.3-6.6
				c-1.8-1.8-4.1-3.1-6.9-4c-2.8-0.9-6.1-1-10.1-0.5l-0.1,0l-20.8,2.8l9.1,68.6l15.5-2.1l-3-22.3l0.2,0l12.2,21.1l17.8-2.4
				L79.6,239.5z"/>
			<path class="st1" d="M91.3,182.2l61.4-8.1l12.8,96.4l-61.4,8.1L91.3,182.2z M132.6,190.5l5.3,40.1c0.2,1.7,0.3,3.2,0.1,4.8
				c-0.1,1.5-0.5,2.9-1.1,4.1c-0.6,1.2-1.3,2.2-2.4,3c-1,0.8-2.3,1.3-3.8,1.5c-1.5,0.2-2.9,0.1-4.1-0.4c-1.2-0.5-2.2-1.3-3.1-2.3
				c-0.9-1-1.6-2.2-2.1-3.7c-0.5-1.4-0.9-3-1.1-4.6l-5.3-40.1L99,195l5.5,41.2c0.5,3.6,1.4,7,2.7,10.2c1.3,3.2,3.2,5.9,5.5,8.2
				c2.3,2.3,5.1,4,8.5,5s7.2,1.3,11.7,0.6l0.1,0c4.1-0.5,7.6-1.6,10.5-3.3c2.9-1.7,5.2-3.9,7-6.6c1.7-2.7,2.9-5.8,3.6-9.3
				c0.6-3.5,0.7-7.3,0.1-11.3l-5.5-41.2L132.6,190.5z"/>
			<path class="st1" d="M151.4,174.3l74.5-9.9l12.8,96.4l-74.5,9.9L151.4,174.3z M205.2,180.9l-9,41.7l-19.5-37.9l-15.8,2.1
				l9.1,68.6l16.4-2.2l-3.3-24.7L195,252l10-1.3l5.2-25.1l3.2,24l16.4-2.2l-9.1-68.6L205.2,180.9z"/>
			<path class="st1" d="M223.7,164.7l51-6.8l12.8,96.4l-51,6.8L223.7,164.7z M261.1,206.6c1.1-0.1,2.2-0.7,3.3-1.7
				c1.1-1,2.1-2.2,2.9-3.8c0.8-1.6,1.4-3.4,1.8-5.4c0.4-2.1,0.4-4.3,0.1-6.7c-0.3-2.3-1-4.4-2-6.2c-1.1-1.9-2.5-3.4-4.3-4.7
				c-1.8-1.3-4-2.2-6.6-2.7c-2.6-0.5-5.6-0.6-9-0.1l-0.5,0.1l0.9-0.1l-16.3,2.2l9.1,68.6l21.9-2.9l0.5-0.1c3-0.4,5.6-1.3,7.7-2.6
				s3.8-2.9,5.1-4.9c1.3-1.9,2.1-4.1,2.6-6.5c0.5-2.4,0.5-4.8,0.2-7.3c-0.2-1.7-0.8-3.6-1.6-5.5c-0.8-2-1.9-3.7-3.4-5.3
				c-1.4-1.6-3.2-2.8-5.2-3.7C266.3,206.5,263.8,206.2,261.1,206.6z"/>
			<path class="st1" d="M273.4,158.1l46.5-6.2l12.8,96.4l-46.5,6.2L273.4,158.1z M297.5,168.6l-15.5,2.1l9.1,68.6l33.8-4.5
				l-2.1-15.5l-18.3,2.4L297.5,168.6z"/>
			<path class="st1" d="M318.7,152l53.9-7.2l12.8,96.4l-53.9,7.2L318.7,152z M368.5,159.2l-42.1,5.6l9.1,68.6l42.1-5.6l-2.1-15.5
				l-26.6,3.5l-1.5-11.1l19.5-2.6l-2.1-15.5l-19.5,2.6l-1.5-11.1l26.6-3.5L368.5,159.2z"/>
			<path class="st1" d="M371.3,145.1l54.8-7.3l12.8,96.4l-54.8,7.3L371.3,145.1z M413.3,195.2c0.8-0.1,1.8-0.7,3.2-1.7
				c1.3-1,2.5-2.4,3.7-4.2c1.2-1.8,2.1-4,2.8-6.5c0.7-2.5,0.8-5.3,0.4-8.4c-0.4-2.9-1.1-5.7-2.1-8.3c-1-2.6-2.5-4.8-4.3-6.6
				c-1.8-1.8-4.1-3.1-6.9-4c-2.8-0.9-6.1-1-10.1-0.5l-0.1,0l-20.8,2.8l9.1,68.6l15.5-2.1l-3-22.3l0.2,0l12.2,21.1l17.8-2.4
				L413.3,195.2z"/>
			<path class="st1" d="M425,137.9l56.2-7.5l12.8,96.4l-56.2,7.5L425,137.9z M484.3,196.1c-0.5-3.5-1.5-6.4-3-8.8
				c-1.6-2.4-3.5-4.5-5.8-6.2c-2.3-1.8-4.9-3.3-7.7-4.5c-2.8-1.3-5.8-2.5-8.8-3.7c-2.2-1.2-3.9-2.2-4.9-3c-1.1-0.8-1.7-1.7-1.8-2.9
				c-0.2-1.5,0.2-2.8,1.1-3.7c0.9-0.9,2-1.4,3.2-1.6c1.2-0.2,2.2,0,3.2,0.3c1,0.4,1.8,0.9,2.5,1.5c0.7,0.6,1.3,1.3,1.8,2.1
				c0.5,0.8,0.9,1.5,1.1,2.1l12.8-7.1c-0.6-1.8-1.4-3.6-2.7-5.3c-1.2-1.7-2.8-3.2-4.8-4.5s-4.3-2.2-6.9-2.8
				c-2.7-0.6-5.7-0.7-9.1-0.2c-2.8,0.4-5.5,1.2-8,2.4c-2.5,1.2-4.7,2.6-6.5,4.4c-1.8,1.8-3.2,3.9-4.1,6.4c-0.9,2.4-1.2,5.2-0.8,8.2
				c0.4,3.3,1.4,5.9,2.8,7.9c1.4,2,3.2,3.7,5.5,5.2c2.2,1.5,4.8,2.8,7.7,4c2.9,1.2,6,2.7,9.4,4.3c1.5,0.8,2.8,1.6,3.6,2.4
				c0.9,0.8,1.4,1.7,1.6,2.7c0.3,1.7,0,3-0.9,4c-0.9,0.9-1.9,1.5-2.9,1.8c-1.2,0.3-2.4,0.2-3.6-0.3c-1.2-0.6-2.2-1.2-3-2
				c-0.9-0.8-1.5-1.6-2-2.3c-0.5-0.7-0.7-1.2-0.6-1.2l-13.9,8.1c0.9,2.4,2.2,4.4,3.9,6.2c1.6,1.8,3.5,3.2,5.7,4.3
				c2.1,1.1,4.5,1.8,7,2.3c2.5,0.4,5.2,0.4,7.9,0.1c3.6-0.5,6.7-1.3,9.4-2.5c2.7-1.2,5-2.7,6.8-4.4c1.8-1.7,3.1-3.6,4-5.7
				c0.9-2.1,1.2-4.2,1.1-6.5L484.3,196.1z"/>
		</g>
		<g>
			<path class="st1" d="M486.1,231.4l0.3,2l-2,0.3l0.9,6.9l-2,0.3l-0.9-6.9l-2,0.3l-0.3-2L486.1,231.4z"/>
			<path class="st1" d="M494.5,230.3l1.2,8.9l-2.1,0.3l-0.4-3.1l-0.7,3.2l-1.3,0.2l-1.5-3l0.4,3.2l-2.1,0.3l-1.2-8.9l2-0.3l2.5,4.9
				l1.2-5.4L494.5,230.3z"/>
		</g>
	</g>
</g>
<g id="Bodies">
	<g id="Body15_1_">
	</g>
</g>
<g id="Eyes">
	<g id="Eyes01">
	</g>
</g>
</svg>
